<?xml version="1.0" encoding="UTF-8" standalone="no"?>
<!-- Generator: Adobe Illustrator 15.1.0, SVG Export Plug-In  -->

<svg
   xmlns:a="http://ns.adobe.com/AdobeSVGViewerExtensions/3.0/"
   xmlns:dc="http://purl.org/dc/elements/1.1/"
   xmlns:cc="http://creativecommons.org/ns#"
   xmlns:rdf="http://www.w3.org/1999/02/22-rdf-syntax-ns#"
   xmlns:svg="http://www.w3.org/2000/svg"
   xmlns="http://www.w3.org/2000/svg"
   xmlns:xlink="http://www.w3.org/1999/xlink"
   xmlns:sodipodi="http://sodipodi.sourceforge.net/DTD/sodipodi-0.dtd"
   xmlns:inkscape="http://www.inkscape.org/namespaces/inkscape"
   version="1.1"
   x="0px"
   y="0px"
   width="24px"
   height="24px"
   viewBox="-0.1 -2 24 24"
   style="overflow:visible;enable-background:new -0.1 -2 24 24;"
   xml:space="preserve"
   preserveAspectRatio="xMinYMid meet"
   id="svg50"
   sodipodi:docname="icon.svg"
   inkscape:version="0.92.3 (2405546, 2018-03-11)"
   inkscape:export-filename="C:\Users\Embem Endut\Downloads\ompdf\pix\icon.png"
   inkscape:export-xdpi="96"
   inkscape:export-ydpi="96"><metadata
   id="metadata54"><rdf:RDF><cc:Work
       rdf:about=""><dc:format>image/svg+xml</dc:format><dc:type
         rdf:resource="http://purl.org/dc/dcmitype/StillImage" /></cc:Work></rdf:RDF></metadata><sodipodi:namedview
   pagecolor="#ffffff"
   bordercolor="#666666"
   borderopacity="1"
   objecttolerance="10"
   gridtolerance="10"
   guidetolerance="10"
   inkscape:pageopacity="0"
   inkscape:pageshadow="2"
   inkscape:window-width="1366"
   inkscape:window-height="715"
   id="namedview52"
   showgrid="false"
   inkscape:zoom="4.9166667"
   inkscape:cx="43.540483"
   inkscape:cy="3.4126169"
   inkscape:window-x="-8"
   inkscape:window-y="-8"
   inkscape:window-maximized="1"
   inkscape:current-layer="svg50" />
<defs
   id="defs2">
<linearGradient
   inkscape:collect="always"
   xlink:href="#linearGradient10351"
   id="linearGradient3174"
   gradientUnits="userSpaceOnUse"
   x1="1263.769"
   y1="220.23788"
   x2="1261.1758"
   y2="233.99333" /><linearGradient
   inkscape:collect="always"
   id="linearGradient10351"><stop
     style="stop-color:#1a1a1a;stop-opacity:1;"
     offset="0"
     id="stop10347" /><stop
     style="stop-color:#d20505;stop-opacity:1"
     offset="1"
     id="stop10349" /></linearGradient><linearGradient
   inkscape:collect="always"
   xlink:href="#SVGID_4_"
   id="linearGradient4663"
   x1="11.942966"
   y1="4.8154225"
   x2="11.942966"
   y2="19.689245"
   gradientUnits="userSpaceOnUse" /><linearGradient
   inkscape:collect="always"
   xlink:href="#SVGID_5_"
   id="linearGradient4671"
   x1="12.205085"
   y1="0.84745765"
   x2="12.205085"
   y2="16.661016"
   gradientUnits="userSpaceOnUse" /></defs>
<linearGradient
   id="SVGID_1_"
   gradientUnits="userSpaceOnUse"
   x1="11.9351"
   y1="0"
   x2="11.9351"
   y2="20.0005">
	<stop
   offset="0"
   style="stop-color:#ff6e6e;stop-opacity:1"
   id="stop4" />
	<stop
   offset="1"
   style="stop-color:#ff4e4e;stop-opacity:1"
   id="stop6" />
	<a:midPointStop
   offset="0"
   style="stop-color:#76A1F0" />
	<a:midPointStop
   offset="0.5"
   style="stop-color:#76A1F0" />
	<a:midPointStop
   offset="1"
   style="stop-color:#6B90D5" />
</linearGradient>

<linearGradient
   id="SVGID_2_"
   gradientUnits="userSpaceOnUse"
   x1="11.9351"
   y1="0.98879999"
   x2="11.9351"
   y2="19.0005"
   xlink:href="#SVGID_4_">
	<stop
   offset="0"
   style="stop-color:#BBE0F7"
   id="stop11" />
	<stop
   offset="1"
   style="stop-color:#82B4FB"
   id="stop13" />
	<a:midPointStop
   offset="0"
   style="stop-color:#BBE0F7" />
	<a:midPointStop
   offset="0.5"
   style="stop-color:#BBE0F7" />
	<a:midPointStop
   offset="1"
   style="stop-color:#82B4FB" />
</linearGradient>

<linearGradient
   id="SVGID_3_"
   gradientUnits="userSpaceOnUse"
   x1="11.9351"
   y1="1.9917"
   x2="11.9351"
   y2="18.0005">
	<stop
   offset="0"
   style="stop-color:#95BFF8"
   id="stop18" />
	<stop
   offset="0.5569"
   style="stop-color:#84ADEF"
   id="stop20" />
	<stop
   offset="1"
   style="stop-color:#7CA4EB"
   id="stop22" />
	<a:midPointStop
   offset="0"
   style="stop-color:#95BFF8" />
	<a:midPointStop
   offset="0.4"
   style="stop-color:#95BFF8" />
	<a:midPointStop
   offset="1"
   style="stop-color:#7CA4EB" />
</linearGradient>

<linearGradient
   id="SVGID_4_"
   gradientUnits="userSpaceOnUse"
   x1="11.936"
   y1="5"
   x2="11.936"
   y2="20.0005"
   spreadMethod="pad">
	<stop
   offset="0"
   style="stop-color:#ff7b7b;stop-opacity:1"
   id="stop27" />
	<stop
   offset="1"
   style="stop-color:#ff4e4e;stop-opacity:1"
   id="stop29" />
	<a:midPointStop
   offset="0"
   style="stop-color:#76A1F0" />
	<a:midPointStop
   offset="0.5"
   style="stop-color:#76A1F0" />
	<a:midPointStop
   offset="1"
   style="stop-color:#6B90D5" />
</linearGradient>

<linearGradient
   id="SVGID_5_"
   gradientUnits="userSpaceOnUse"
   x1="11.9673"
   y1="5.9541"
   x2="11.9673"
   y2="19.0005">
	<stop
   offset="0"
   style="stop-color:#ffcaca;stop-opacity:1"
   id="stop34" />
	<stop
   offset="1"
   style="stop-color:#ff9595;stop-opacity:1"
   id="stop36" />
	<a:midPointStop
   offset="0"
   style="stop-color:#BBE0F7" />
	<a:midPointStop
   offset="0.5"
   style="stop-color:#BBE0F7" />
	<a:midPointStop
   offset="1"
   style="stop-color:#82B4FB" />
</linearGradient>

<linearGradient
   id="SVGID_6_"
   gradientUnits="userSpaceOnUse"
   x1="11.9663"
   y1="6.9565001"
   x2="11.9663"
   y2="18.0005"
   xlink:href="#SVGID_5_">
	<stop
   offset="0"
   style="stop-color:#ff8282;stop-opacity:1"
   id="stop41" />
	<stop
   offset="0.5569"
   style="stop-color:#ff8383;stop-opacity:1"
   id="stop43" />
	<stop
   offset="1"
   style="stop-color:#ff7373;stop-opacity:1"
   id="stop45" />
	<a:midPointStop
   offset="0"
   style="stop-color:#95BFF8" />
	<a:midPointStop
   offset="0.4"
   style="stop-color:#95BFF8" />
	<a:midPointStop
   offset="1"
   style="stop-color:#7CA4EB" />
</linearGradient>

<g
   id="g4700"><path
     id="path9"
     d="M21.9,19c0,0.5-0.5,1-1,1h-18c-0.5,0-1-0.5-1-1V1.1c0-0.5,0.5-1.1,1-1.1h4  c0.5,0,1.4,0.3,1.8,0.6l0.9,0.7C10.1,1.7,10.9,2,11.4,2l9.5,0c0.5,0,1,0.5,1,1V19z"
     style="fill:url(#SVGID_1_);" /><path
     id="path16"
     d="M2.9,19V1.1C2.9,1.1,3,1,3,1l3.9,0c0.3,0,0.9,0.2,1.2,0.4L9,2.2C9.7,2.6,10.7,3,11.4,3l9.5,0  v16H2.9z"
     style="fill:url(#linearGradient4671);fill-opacity:1" /><path
     id="path25"
     d="M3.9,18V2l3,0C7,2,7.4,2.1,7.5,2.2L8.4,3c0.8,0.6,2.1,1,3,1l8.5,0v14H3.9z"
     style="fill:#f0f0f0;fill-opacity:1" /><g
     transform="matrix(0.24721209,0,0,0.24721209,15.477939,-5.7988319)"
     id="g1552"><g
       transform="matrix(0.2837379,0.01371566,-0.01371566,0.2837379,-97.090484,-245.28419)"
       id="g2998"><g
         transform="matrix(0.45673803,-0.06012646,0.06012646,0.45673803,-70.279487,946.47665)"
         id="g2988"><g
           id="g2986"
           transform="matrix(4.668366,0,0,4.668366,-4916.3363,-818.03551)"><path
             inkscape:connector-curvature="0"
             id="path2970"
             d="m 1233.8793,207.37198 c -4.8217,0.44423 -7.8928,4.68888 -7.6377,9.00371 0.241,4.08003 3.4057,7.30558 7.5083,8.08804 -0.2485,-1.67924 -0.3664,-3.41634 -0.3337,-5.202 0.075,-4.18077 0.9014,-8.17937 2.3541,-11.85943 -0.6537,-0.0703 -1.2885,-0.0858 -1.8905,-0.0303 z m 58.0915,7.21279 c 0.028,0.30272 0.057,0.60389 0.075,0.90964 0.3598,6.08792 0.082,11.5835 -1.698,16.17335 5.6083,0.31894 9.3053,-4.29681 9.0267,-9.01144 -0.2391,-4.04569 -3.3518,-7.25488 -7.4039,-8.07155 z"
             style="opacity:1;fill:#ffe5bc;fill-opacity:1;fill-rule:nonzero;stroke:#e6c598;stroke-width:0.25746018;stroke-linecap:butt;stroke-linejoin:miter;stroke-miterlimit:4;stroke-dasharray:none;stroke-dashoffset:0;stroke-opacity:1" /><path
             sodipodi:nodetypes="scscs"
             inkscape:connector-curvature="0"
             id="path2972"
             d="m 1293.0708,217.55217 c 0,16.20066 -4.3442,27.92764 -29.3339,28.16201 -20.1942,-2.18318 -32.3949,-12.08611 -31.0916,-28.51357 1.4967,-18.86517 20.1221,-32.12786 38.4076,-28.2464 9.521,1.28905 22.0179,12.3973 22.0179,28.59796 z"
             style="opacity:1;fill:#8f6831;fill-opacity:1;fill-rule:nonzero;stroke:none;stroke-width:0.1875;stroke-linecap:butt;stroke-linejoin:miter;stroke-miterlimit:4;stroke-dasharray:none;stroke-dashoffset:0;stroke-opacity:1" /><path
             style="opacity:1;fill:#805d2c;fill-opacity:1;fill-rule:nonzero;stroke:none;stroke-width:0.13385819;stroke-linecap:butt;stroke-linejoin:miter;stroke-miterlimit:4;stroke-dasharray:none;stroke-dashoffset:0;stroke-opacity:1"
             d="m 1284.6424,221.55013 c 0,11.28816 -5.0836,20.78503 -21.374,21.52835 -15.3647,0.89816 -23.5059,-8.86228 -22.494,-21.77331 1.0306,-13.14991 9.9955,-21.5054 24.1157,-20.19029 14.0542,0.54662 19.7523,9.14708 19.7523,20.43525 z"
             id="path2974"
             inkscape:connector-curvature="0"
             sodipodi:nodetypes="scscs" /><path
             sodipodi:nodetypes="scscs"
             inkscape:connector-curvature="0"
             id="path2976"
             d="m 1283.2353,221.95038 c 0,11.50864 -5.6957,21.01522 -20.0054,21.94884 -13.8537,-0.37336 -22.0008,-9.03538 -21.0538,-22.19859 0.9647,-13.40675 9.3555,-21.92544 22.5716,-20.58465 13.3301,0.67449 18.4876,9.32574 18.4876,20.8344 z"
             style="opacity:1;fill:#ffe5bc;fill-opacity:1;fill-rule:nonzero;stroke:none;stroke-width:0.13076042;stroke-linecap:butt;stroke-linejoin:miter;stroke-miterlimit:4;stroke-dasharray:none;stroke-dashoffset:0;stroke-opacity:1" /><path
             inkscape:connector-curvature="0"
             id="path2978"
             d="m 1255.8649,223.10407 c 0,0 5.3032,4.9304 14.0454,2.32019 -0.5386,4.72326 -3.3146,5.63475 -4.2675,6.25623 -0.9529,0.62149 -5.179,1.61585 -8.0793,-1.40868 -2.9002,-3.02454 -1.6986,-7.16774 -1.6986,-7.16774 z"
             style="fill:url(#linearGradient3174);fill-opacity:1;fill-rule:evenodd;stroke:none;stroke-width:0.9375px;stroke-linecap:butt;stroke-linejoin:miter;stroke-opacity:1" /><path
             inkscape:connector-curvature="0"
             id="path2980"
             d="m 1262.3272,200.97839 c -8.3691,-0.0848 -14.5364,4.04476 -17.7447,10.92591 3.8407,-6.80202 10.7573,-10.75799 19.6967,-9.85107 14.2369,1.69075 18.7448,9.39374 18.9385,20.49315 0,-0.19956 0.018,-0.39426 0.018,-0.59508 0,-11.50867 -5.1581,-20.16109 -18.4881,-20.83557 -0.8261,-0.0838 -1.6331,-0.12935 -2.4208,-0.13734 z"
             style="opacity:1;fill:#c9a675;fill-opacity:1;fill-rule:nonzero;stroke:none;stroke-width:0.13076042;stroke-linecap:butt;stroke-linejoin:miter;stroke-miterlimit:4;stroke-dasharray:none;stroke-dashoffset:0;stroke-opacity:1" /><circle
             r="0.68756998"
             cy="219.83292"
             cx="1262.1826"
             id="circle2982"
             style="opacity:1;fill:#1a1a1a;fill-opacity:1;fill-rule:nonzero;stroke:none;stroke-width:0.16001628;stroke-linecap:butt;stroke-linejoin:miter;stroke-miterlimit:4;stroke-dasharray:none;stroke-dashoffset:0;stroke-opacity:1" /><circle
             style="opacity:1;fill:#1a1a1a;fill-opacity:1;fill-rule:nonzero;stroke:none;stroke-width:0.16001628;stroke-linecap:butt;stroke-linejoin:miter;stroke-miterlimit:4;stroke-dasharray:none;stroke-dashoffset:0;stroke-opacity:1"
             id="circle2984"
             cx="1264.585"
             cy="220.30167"
             r="0.68756998" /></g></g><g
         transform="matrix(0.46067865,0,0,0.46067865,-102.53669,903.25225)"
         id="g2996"><path
           inkscape:connector-curvature="0"
           id="path2990"
           d="m 1121.4606,98.17766 c 0,0 -12.3787,-26.305075 -6.9629,-45.840506 5.4158,-19.535431 12.5724,-17.407776 13.9262,-16.053857 1.3543,1.353967 15.4733,32.494582 22.8236,40.811603 7.3499,8.317068 7.3499,17.988101 42.3589,35.20247 35.009,17.21437 -7.9301,23.40378 -11.2181,22.82351 -3.2884,-0.58024 -34.0422,0.96709 -60.9277,-36.94322 z"
           style="fill:#a0a03f;fill-opacity:1;fill-rule:evenodd;stroke:none;stroke-width:4.37659311px;stroke-linecap:butt;stroke-linejoin:miter;stroke-opacity:1" /><path
           style="fill:#f7f799;fill-opacity:1;fill-rule:evenodd;stroke:none;stroke-width:4.37659311px;stroke-linecap:butt;stroke-linejoin:miter;stroke-opacity:1"
           d="m 1111.066,93.527548 c 0,0 -12.3787,-26.305075 -6.9629,-45.840506 5.4158,-19.535431 12.5724,-17.407777 13.9262,-16.053857 1.3543,1.353966 15.4733,32.494581 22.8236,40.811602 7.3499,8.317067 7.3499,17.988102 42.3589,35.202463 35.009,17.21437 -7.9301,23.40379 -11.2181,22.82351 -3.2883,-0.58024 -34.0421,0.9671 -60.9277,-36.943212 z"
           id="path2992"
           inkscape:connector-curvature="0" /><path
           inkscape:connector-curvature="0"
           id="path2994"
           d="m 1117.9042,102.55425 c 0,0 -12.3786,-26.305072 -6.9629,-45.840503 5.4158,-19.53543 12.5724,-17.407776 13.9262,-16.053856 1.3543,1.353965 15.4733,32.494581 22.8237,40.811602 7.3498,8.317068 7.3498,17.988101 42.3589,35.202467 35.009,17.21437 -7.9302,23.40378 -11.2181,22.82351 -3.2884,-0.58023 -34.0422,0.96709 -60.9278,-36.94322 z"
           style="fill:#e8e843;fill-opacity:1;fill-rule:evenodd;stroke:none;stroke-width:4.37659311px;stroke-linecap:butt;stroke-linejoin:miter;stroke-opacity:1" /></g></g><ellipse
       transform="matrix(0.99930779,0.03720146,-0.11380634,0.99350295,0,0)"
       ry="2.0165987"
       rx="1.2138574"
       cy="38.037941"
       cx="-2.0452549"
       id="ellipse3002"
       style="opacity:1;fill:#1a1a1a;fill-opacity:1;fill-rule:nonzero;stroke:none;stroke-width:0.12361996;stroke-linecap:butt;stroke-linejoin:miter;stroke-miterlimit:4;stroke-dasharray:none;stroke-dashoffset:0;stroke-opacity:1" /><path
       inkscape:connector-curvature="0"
       id="path3004"
       d="m 6.512244,37.140489 a 1.2082647,2.0199548 9.0038764 0 0 -1.3558493,1.956339 1.2082647,2.0199548 9.0038764 0 0 -0.019519,0.428017 1.2082647,2.0199548 9.0038764 0 1 1.3529241,-1.486917 1.2082647,2.0199548 9.0038764 0 1 1.0028577,1.623361 1.2082647,2.0199548 9.0038764 0 0 0.089862,-0.473557 1.2082647,2.0199548 9.0038764 0 0 -0.9831337,-2.049127 1.2082647,2.0199548 9.0038764 0 0 -0.087073,0.0021 z"
       style="opacity:1;fill:#b3b3b3;fill-opacity:1;fill-rule:nonzero;stroke:none;stroke-width:0.12343741;stroke-linecap:butt;stroke-linejoin:miter;stroke-miterlimit:4;stroke-dasharray:none;stroke-dashoffset:0;stroke-opacity:1" /><ellipse
       style="opacity:1;fill:#1a1a1a;fill-opacity:1;fill-rule:nonzero;stroke:none;stroke-width:0.12361996;stroke-linecap:butt;stroke-linejoin:miter;stroke-miterlimit:4;stroke-dasharray:none;stroke-dashoffset:0;stroke-opacity:1"
       id="ellipse1532"
       cx="10.833544"
       cy="38.984848"
       rx="1.2138574"
       ry="2.0165987"
       transform="matrix(0.99930779,0.03720146,-0.11380634,0.99350295,0,0)" /></g><path
     id="path32"
     d="M23,19c0,0.5-0.5,1-1.1,1h-20c-0.5,0-1-0.5-1.1-1L0,6c0-0.5,0.4-1,0.9-1h22c0.5,0,1,0.5,0.9,1  L23,19z"
     style="fill:url(#SVGID_4_);fill-opacity:1.0" /><path
     id="path39"
     d="M1.9,19c0,0-0.1-0.1-0.1-0.1L1,6l21.9,0L22,18.9c0,0,0,0.1-0.1,0.1H1.9z"
     style="fill:url(#SVGID_5_);" /><polygon
     id="polygon48"
     points="2.8,18 2.1,7 21.9,7 21.1,18 "
     style="fill:#f0f0f0;fill-opacity:1" /><text
     id="text1518"
     y="14.739031"
     x="11.832103"
     style="font-style:normal;font-variant:normal;font-weight:bold;font-stretch:normal;font-size:7.39471912px;line-height:1.25;font-family:'Segoe UI';-inkscape-font-specification:'Segoe UI Bold';text-align:center;letter-spacing:0px;word-spacing:0px;text-anchor:middle;fill:url(#linearGradient4663);fill-opacity:1;stroke:none;stroke-width:0.18486796"
     xml:space="preserve"><tspan
       style="font-style:normal;font-variant:normal;font-weight:bold;font-stretch:normal;font-family:'Segoe UI';-inkscape-font-specification:'Segoe UI Bold';fill:url(#linearGradient4663);fill-opacity:1;stroke-width:0.18486796"
       y="14.739031"
       x="11.832103"
       id="tspan1516"
       sodipodi:role="line">PDF</tspan></text>
</g></svg>